
<group>
lokey=$KICKKEY
hikey=$KICKKEY
pitch_keycenter=$KICKKEY
ampeg_hold=0.100
ampeg_decay=0.300
tune_oncc$KICKTUNE=2400
ampeg_hold_oncc$KICKENV=-0.1
ampeg_hold_curvecc$KICKENV=8
ampeg_decay_oncc$KICKENV=-0.25
ampeg_decay_curvecc$KICKENV=8
ampeg_sustain_oncc$KICKENV=-100
ampeg_sustain_curvecc$KICKENV=7

<region>
sample=../Samples/marching_kick/marching_kick_vl1_rr4_beater.wav
hivel=6
amp_velcurve_6=1
amplitude_oncc$KICKBATVOL=100

<region>
sample=../Samples/marching_kick/marching_kick_vl1_rr4_reso.wav
hivel=6
amplitude_oncc$KICKRESVOL=100
amp_velcurve_6=1

<region>
sample=../Samples/marching_kick/marching_kick_vl10_rr4_beater.wav
lovel=54
hivel=59
amp_velcurve_59=1
amplitude_oncc$KICKBATVOL=100

<region>
sample=../Samples/marching_kick/marching_kick_vl10_rr4_reso.wav
lovel=54
hivel=59
amplitude_oncc$KICKRESVOL=100
amp_velcurve_59=1

<region>
sample=../Samples/marching_kick/marching_kick_vl11_rr4_beater.wav
lovel=60
hivel=65
amp_velcurve_65=1
amplitude_oncc$KICKBATVOL=100

<region>
sample=../Samples/marching_kick/marching_kick_vl11_rr4_reso.wav
lovel=60
hivel=65
amplitude_oncc$KICKRESVOL=100
amp_velcurve_65=1

<region>
sample=../Samples/marching_kick/marching_kick_vl12_rr4_beater.wav
lovel=66
hivel=71
amp_velcurve_71=1
amplitude_oncc$KICKBATVOL=100

<region>
sample=../Samples/marching_kick/marching_kick_vl12_rr4_reso.wav
lovel=66
hivel=71
amplitude_oncc$KICKRESVOL=100
amp_velcurve_71=1

<region>
sample=../Samples/marching_kick/marching_kick_vl13_rr4_beater.wav
lovel=72
hivel=76
amp_velcurve_76=1
amplitude_oncc$KICKBATVOL=100

<region>
sample=../Samples/marching_kick/marching_kick_vl13_rr4_reso.wav
lovel=72
hivel=76
amplitude_oncc$KICKRESVOL=100
amp_velcurve_76=1

<region>
sample=../Samples/marching_kick/marching_kick_vl14_rr4_beater.wav
lovel=77
hivel=82
amp_velcurve_82=1
amplitude_oncc$KICKBATVOL=100

<region>
sample=../Samples/marching_kick/marching_kick_vl14_rr4_reso.wav
lovel=77
hivel=82
amplitude_oncc$KICKRESVOL=100
amp_velcurve_82=1

<region>
sample=../Samples/marching_kick/marching_kick_vl15_rr4_beater.wav
lovel=83
hivel=88
amp_velcurve_88=1
amplitude_oncc$KICKBATVOL=100

<region>
sample=../Samples/marching_kick/marching_kick_vl15_rr4_reso.wav
lovel=83
hivel=88
amplitude_oncc$KICKRESVOL=100
amp_velcurve_88=1

<region>
sample=../Samples/marching_kick/marching_kick_vl16_rr4_beater.wav
lovel=89
hivel=93
amp_velcurve_93=1
amplitude_oncc$KICKBATVOL=100

<region>
sample=../Samples/marching_kick/marching_kick_vl16_rr4_reso.wav
lovel=89
hivel=93
amplitude_oncc$KICKRESVOL=100
amp_velcurve_93=1

<region>
sample=../Samples/marching_kick/marching_kick_vl17_rr4_beater.wav
lovel=94
hivel=99
amp_velcurve_99=1
amplitude_oncc$KICKBATVOL=100

<region>
sample=../Samples/marching_kick/marching_kick_vl17_rr4_reso.wav
lovel=94
hivel=99
amplitude_oncc$KICKRESVOL=100
amp_velcurve_99=1

<region>
sample=../Samples/marching_kick/marching_kick_vl18_rr4_beater.wav
lovel=100
hivel=105
amp_velcurve_105=1
amplitude_oncc$KICKBATVOL=100

<region>
sample=../Samples/marching_kick/marching_kick_vl18_rr4_reso.wav
lovel=100
hivel=105
amplitude_oncc$KICKRESVOL=100
amp_velcurve_105=1

<region>
sample=../Samples/marching_kick/marching_kick_vl19_rr4_beater.wav
lovel=106
hivel=110
amp_velcurve_110=1
amplitude_oncc$KICKBATVOL=100

<region>
sample=../Samples/marching_kick/marching_kick_vl19_rr4_reso.wav
lovel=106
hivel=110
amplitude_oncc$KICKRESVOL=100
amp_velcurve_110=1

<region>
sample=../Samples/marching_kick/marching_kick_vl2_rr4_beater.wav
lovel=7
hivel=12
amp_velcurve_12=1
amplitude_oncc$KICKBATVOL=100

<region>
sample=../Samples/marching_kick/marching_kick_vl2_rr4_reso.wav
lovel=7
hivel=12
amplitude_oncc$KICKRESVOL=100
amp_velcurve_12=1

<region>
sample=../Samples/marching_kick/marching_kick_vl20_rr4_beater.wav
lovel=111
hivel=116
amp_velcurve_116=1
amplitude_oncc$KICKBATVOL=100

<region>
sample=../Samples/marching_kick/marching_kick_vl20_rr4_reso.wav
lovel=111
hivel=116
amplitude_oncc$KICKRESVOL=100
amp_velcurve_116=1

<region>
sample=../Samples/marching_kick/marching_kick_vl21_rr4_beater.wav
lovel=117
hivel=122
amp_velcurve_122=1
amplitude_oncc$KICKBATVOL=100

<region>
sample=../Samples/marching_kick/marching_kick_vl21_rr4_reso.wav
lovel=117
hivel=122
amplitude_oncc$KICKRESVOL=100
amp_velcurve_122=1

<region>
sample=../Samples/marching_kick/marching_kick_vl22_rr4_beater.wav
lovel=123
amplitude_oncc$KICKBATVOL=100

<region>
sample=../Samples/marching_kick/marching_kick_vl22_rr4_reso.wav
lovel=123
amplitude_oncc$KICKRESVOL=100

<region>
sample=../Samples/marching_kick/marching_kick_vl3_rr4_beater.wav
lovel=13
hivel=18
amp_velcurve_18=1
amplitude_oncc$KICKBATVOL=100

<region>
sample=../Samples/marching_kick/marching_kick_vl3_rr4_reso.wav
lovel=13
hivel=18
amplitude_oncc$KICKRESVOL=100
amp_velcurve_18=1

<region>
sample=../Samples/marching_kick/marching_kick_vl4_rr4_beater.wav
lovel=19
hivel=24
amp_velcurve_24=1
amplitude_oncc$KICKBATVOL=100

<region>
sample=../Samples/marching_kick/marching_kick_vl4_rr4_reso.wav
lovel=19
hivel=24
amplitude_oncc$KICKRESVOL=100
amp_velcurve_24=1

<region>
sample=../Samples/marching_kick/marching_kick_vl5_rr4_beater.wav
lovel=25
hivel=30
amp_velcurve_30=1
amplitude_oncc$KICKBATVOL=100

<region>
sample=../Samples/marching_kick/marching_kick_vl5_rr4_reso.wav
lovel=25
hivel=30
amplitude_oncc$KICKRESVOL=100
amp_velcurve_30=1

<region>
sample=../Samples/marching_kick/marching_kick_vl6_rr4_beater.wav
lovel=31
hivel=35
amp_velcurve_35=1
amplitude_oncc$KICKBATVOL=100

<region>
sample=../Samples/marching_kick/marching_kick_vl6_rr4_reso.wav
lovel=31
hivel=35
amplitude_oncc$KICKRESVOL=100
amp_velcurve_35=1

<region>
sample=../Samples/marching_kick/marching_kick_vl7_rr4_beater.wav
lovel=36
hivel=41
amp_velcurve_41=1
amplitude_oncc$KICKBATVOL=100

<region>
sample=../Samples/marching_kick/marching_kick_vl7_rr4_reso.wav
lovel=36
hivel=41
amplitude_oncc$KICKRESVOL=100
amp_velcurve_41=1

<region>
sample=../Samples/marching_kick/marching_kick_vl8_rr4_beater.wav
lovel=42
hivel=47
amp_velcurve_47=1
amplitude_oncc$KICKBATVOL=100

<region>
sample=../Samples/marching_kick/marching_kick_vl8_rr4_reso.wav
lovel=42
hivel=47
amplitude_oncc$KICKRESVOL=100
amp_velcurve_47=1

//========================
<group>
lokey=$KICKKEY
hikey=$KICKKEY
pitch_keycenter=$KICKKEY
ampeg_hold=0.100
ampeg_decay=0.300
tune_oncc$KICKTUNE=2400
ampeg_hold_oncc$KICKENV=-0.1
ampeg_hold_curvecc$KICKENV=8
ampeg_decay_oncc$KICKENV=-0.25
ampeg_decay_curvecc$KICKENV=8
ampeg_sustain_oncc$KICKENV=-100
ampeg_sustain_curvecc$KICKENV=7
amp_velcurve_53=1

<region>
sample=../Samples/marching_kick/marching_kick_vl9_rr4_beater.wav
lovel=48
hivel=53
amplitude_oncc$KICKBATVOL=100

<region>
sample=../Samples/marching_kick/marching_kick_vl9_rr4_reso.wav
lovel=48
hivel=53
amplitude_oncc$KICKRESVOL=100
